<svg width="16" height="16" viewBox="0 0 7 7" fill="none" xmlns="http://www.w3.org/2000/svg">
<path fill-rule="evenodd" clip-rule="evenodd" d="M3.50001 0.583313C2.37126 0.583313 1.45834 1.49623 1.45834 2.62498C1.45834 4.15623 3.50001 6.41665 3.50001 6.41665C3.50001 6.41665 5.54168 4.15623 5.54168 2.62498C5.54168 1.49623 4.62876 0.583313 3.50001 0.583313ZM2.04168 2.62497C2.04168 1.81997 2.69501 1.16664 3.50001 1.16664C4.30501 1.16664 4.95834 1.81997 4.95834 2.62497C4.95834 3.46497 4.11834 4.72205 3.50001 5.50664C2.89334 4.72789 2.04168 3.45622 2.04168 2.62497ZM2.77084 2.62498C2.77084 2.22227 3.0973 1.89581 3.50001 1.89581C3.76052 1.89581 4.00123 2.03479 4.13149 2.2604C4.26174 2.486 4.26174 2.76396 4.13149 2.98956C4.00123 3.21517 3.76052 3.35415 3.50001 3.35415C3.0973 3.35415 2.77084 3.02769 2.77084 2.62498Z" fill="#ADB2BE"/>
</svg>
