<svg width="16" height="16" viewBox="0 0 8 8" fill="none" xmlns="http://www.w3.org/2000/svg">
<path fill-rule="evenodd" clip-rule="evenodd" d="M3.99666 0.666664C2.15666 0.666664 0.666656 2.16 0.666656 4C0.666656 5.84 2.15666 7.33333 3.99666 7.33333C5.83999 7.33333 7.33332 5.84 7.33332 4C7.33332 2.16 5.83999 0.666664 3.99666 0.666664ZM3.99999 6.66666C2.52666 6.66666 1.33332 5.47333 1.33332 4C1.33332 2.52666 2.52666 1.33333 3.99999 1.33333C5.47332 1.33333 6.66666 2.52666 6.66666 4C6.66666 5.47333 5.47332 6.66666 3.99999 6.66666ZM3.66666 2.33333H4.16666V4.08333L5.66666 4.97333L5.41666 5.38333L3.66666 4.33333V2.33333Z" fill="#ADB2BE"/>
</svg>
